<svg width="326" height="80" viewBox="0 0 326 80" fill="none" xmlns="http://www.w3.org/2000/svg">
<g clip-path="url(#clip0_1007_7)">
<path d="M183.473 9.55811H28.5713V20.5945H183.473V9.55811Z" fill="#09090B"/>
<path d="M175.07 0.00460433L177.023 4.85425L245.348 5.26865L242.353 9.93942L178.914 9.55158L183.364 20.6036L235.378 20.8434L218.316 47.5122L217.659 48.5457L218.12 49.6697L220.007 54.2505L280.264 53.9339L282.125 58.6179L221.942 58.93L224.855 65.9961L226.12 69.0526L226.237 68.9462L226.293 69.084L286.42 69.4112L290.612 79.9675L325.232 57.535L274.156 38.5556L278.267 48.8907L242.41 48.694L257.433 24.8738L258.084 23.8434L257.612 22.7151L256.873 20.9422L256.933 20.9433L248.369 0.452966L175.069 0.00390625L175.07 0.00460433ZM247.477 10.6399L252.818 23.4028L236.891 48.669L223.195 48.5892L247.477 10.6399Z" fill="#09090B"/>
<path d="M55.1007 71.6091C55.1007 72.2567 54.9734 72.8584 54.7188 73.4141C54.4874 73.9693 54.1634 74.4556 53.7468 74.8724C53.3534 75.2657 52.8789 75.5783 52.3235 75.8096C51.768 76.041 51.1779 76.1564 50.553 76.1564C49.9975 76.1564 49.4305 76.0522 48.8519 75.8444C48.2965 75.636 47.7989 75.3004 47.3592 74.8376L14.3795 40.3997V75.4623H5.35352V29.5338C5.35352 28.6081 5.60807 27.7749 6.11726 27.0343C6.64958 26.2705 7.32073 25.7035 8.13076 25.3332C8.98706 24.9861 9.8665 24.9051 10.7691 25.0903C11.6717 25.2522 12.447 25.6688 13.0951 26.34L46.0747 60.743V25.6804H55.1007V71.6091ZM106.549 55.119H78.0476V46.0236H106.549V55.119ZM110.611 75.4623H78.0476C76.7978 75.4623 75.4325 75.2427 73.9513 74.8029C72.47 74.3631 71.093 73.6455 69.8202 72.6505C68.5703 71.6321 67.5171 70.3245 66.6611 68.7273C65.828 67.1077 65.4112 65.1284 65.4112 62.7911V30.2281C65.4112 29.6033 65.5272 29.0131 65.7585 28.4577C65.9899 27.9022 66.302 27.4161 66.6958 26.9996C67.112 26.583 67.5983 26.259 68.1535 26.0276C68.7092 25.7961 69.3109 25.6804 69.9591 25.6804H110.611V34.7064H74.437V62.7911C74.437 63.9715 74.7496 64.8741 75.3742 65.4987C75.9994 66.1239 76.9137 66.4365 78.1171 66.4365H110.611V75.4623ZM142.097 43.4547L157.303 25.6804H169.627L148.207 50.6408L169.488 75.4623H157.234L142.097 57.827L127.031 75.4623H114.742L135.988 50.6408L114.672 25.6804H126.892L142.097 43.4547ZM220.311 34.7064H200.42V75.4623H191.393V34.7064H171.467V25.6804H220.311V34.7064Z" fill="#09090B"/>
</g>
<defs>
<clipPath id="clip0_1007_7">
<rect width="325.266" height="80" fill="white"/>
</clipPath>
</defs>
</svg>
